<svg xmlns="http://www.w3.org/2000/svg" xmlns:svg="http://www.w3.org/2000/svg" id="svg2" width="531.496" height="248.031" version="1.1"><defs id="defs4"><marker id="Arrow1Mend" orient="auto" refX="0" refY="0" style="overflow:visible"><path id="path4908" d="M 0,0 5,-5 -12.5,0 5,5 0,0 z" transform="matrix(-0.4,0,0,-0.4,-4,0)" style="fill-rule:evenodd;stroke:#000;stroke-width:1pt;marker-start:none"/></marker><marker id="Arrow1Mstart" orient="auto" refX="0" refY="0" style="overflow:visible"><path id="path4905" d="M 0,0 5,-5 -12.5,0 5,5 0,0 z" transform="matrix(0.4,0,0,0.4,4,0)" style="fill-rule:evenodd;stroke:#000;stroke-width:1pt;marker-start:none"/></marker><marker id="Arrow1Sstart" orient="auto" refX="0" refY="0" style="overflow:visible"><path id="path4911" d="M 0,0 5,-5 -12.5,0 5,5 0,0 z" transform="matrix(0.2,0,0,0.2,1.2,0)" style="fill-rule:evenodd;stroke:#000;stroke-width:1pt;marker-start:none"/></marker><marker id="Arrow1Mstart-4" orient="auto" refX="0" refY="0" style="overflow:visible"><path id="path4905-0" d="M 0,0 5,-5 -12.5,0 5,5 0,0 z" transform="matrix(0.4,0,0,0.4,4,0)" style="fill-rule:evenodd;stroke:#000;stroke-width:1pt;marker-start:none"/></marker><marker id="Arrow1Mend-9" orient="auto" refX="0" refY="0" style="overflow:visible"><path id="path4908-4" d="M 0,0 5,-5 -12.5,0 5,5 0,0 z" transform="matrix(-0.4,0,0,-0.4,-4,0)" style="fill-rule:evenodd;stroke:#000;stroke-width:1pt;marker-start:none"/></marker><marker id="Arrow1Mend-9-5" orient="auto" refX="0" refY="0" style="overflow:visible"><path id="path4908-4-1" d="M 0,0 5,-5 -12.5,0 5,5 0,0 z" transform="matrix(-0.4,0,0,-0.4,-4,0)" style="fill-rule:evenodd;stroke:#000;stroke-width:1pt;marker-start:none"/></marker><marker id="Arrow1Mstart-7" orient="auto" refX="0" refY="0" style="overflow:visible"><path id="path4905-1" d="M 0,0 5,-5 -12.5,0 5,5 0,0 z" transform="matrix(0.4,0,0,0.4,4,0)" style="fill-rule:evenodd;stroke:#000;stroke-width:1pt;marker-start:none"/></marker><marker id="Arrow1Mend-1" orient="auto" refX="0" refY="0" style="overflow:visible"><path id="path4908-5" d="M 0,0 5,-5 -12.5,0 5,5 0,0 z" transform="matrix(-0.4,0,0,-0.4,-4,0)" style="fill-rule:evenodd;stroke:#000;stroke-width:1pt;marker-start:none"/></marker><marker id="marker6167" orient="auto" refX="0" refY="0" style="overflow:visible"><path id="path6169" d="M 0,0 5,-5 -12.5,0 5,5 0,0 z" transform="matrix(0.4,0,0,0.4,4,0)" style="fill-rule:evenodd;stroke:#000;stroke-width:1pt;marker-start:none"/></marker><marker id="marker6171" orient="auto" refX="0" refY="0" style="overflow:visible"><path id="path6173" d="M 0,0 5,-5 -12.5,0 5,5 0,0 z" transform="matrix(-0.4,0,0,-0.4,-4,0)" style="fill-rule:evenodd;stroke:#000;stroke-width:1pt;marker-start:none"/></marker><marker id="Arrow1Mend-9-7" orient="auto" refX="0" refY="0" style="overflow:visible"><path id="path4908-4-6" d="M 0,0 5,-5 -12.5,0 5,5 0,0 z" transform="matrix(-0.4,0,0,-0.4,-4,0)" style="fill-rule:evenodd;stroke:#000;stroke-width:1pt;marker-start:none"/></marker></defs><metadata id="metadata7"/><g id="layer1" transform="translate(0,-804.33069)"><g id="g6236" transform="translate(14.142136,95.964488)"><rect id="rect4099-7" width="90.025" height="90.025" x="52.601" y="756.555" style="fill:#00f;stroke:navy;stroke-width:1.93739605"/><rect id="rect4099-1" width="90.025" height="90.025" x="38.656" y="744.079" style="fill:#0f0;stroke:green;stroke-width:1.93739605"/><rect id="rect4099" width="90.025" height="90.025" x="24.712" y="731.602" style="fill:red;stroke:maroon;stroke-width:1.93739605"/></g><path style="fill:none;stroke:#000;stroke-width:1.15833902px;stroke-linecap:butt;stroke-linejoin:miter;stroke-opacity:1;marker-start:url(#Arrow1Mstart);marker-mid:none;marker-end:url(#Arrow1Mend)" id="path4126" d="m 38.924974,822.0474 88.437976,0"/><text style="font-size:40px;font-style:normal;font-weight:400;line-height:125%;letter-spacing:0;word-spacing:0;fill:#000;fill-opacity:1;stroke:none;font-family:Bitstream Vera Sans" id="text5898" x="71.999" y="818.684" xml:space="preserve"><tspan id="tspan5900" x="71.999" y="818.684" style="font-size:10px">width</tspan></text><path style="fill:none;stroke:#000;stroke-width:1.15833902px;stroke-linecap:butt;stroke-linejoin:miter;stroke-opacity:1;marker-start:url(#Arrow1Mstart);marker-mid:none;marker-end:url(#Arrow1Mend)" id="path4126-8" d="m 31.671339,916.83138 0,-88.43799"/><text style="font-size:40px;font-style:normal;font-weight:400;line-height:125%;letter-spacing:0;word-spacing:0;fill:#000;fill-opacity:1;stroke:none;font-family:Bitstream Vera Sans" id="text5898-8" x="-883.757" y="28.308" transform="matrix(0,-1,1,0,0,0)" xml:space="preserve"><tspan id="tspan5900-2" x="-883.757" y="28.308" style="font-size:10px">height</tspan></text><path style="fill:none;stroke:#000;stroke-width:1px;stroke-linecap:butt;stroke-linejoin:miter;stroke-opacity:1;marker-end:url(#Arrow1Mend-9)" id="path5938" d="m 132.71356,821.8981 26.42857,24.28571"/><text style="font-size:40px;font-style:normal;font-weight:400;line-height:125%;letter-spacing:0;word-spacing:0;fill:#000;fill-opacity:1;stroke:none;font-family:Bitstream Vera Sans" id="text5898-4" x="152.075" y="829.704" xml:space="preserve"><tspan id="tspan5900-5" x="152.075" y="829.704" style="font-size:10px">channels</tspan></text><g id="g6241" transform="translate(184.14213,95.964488)"><rect style="fill:#00f;stroke:navy;stroke-width:1.93739605" id="rect6243" width="90.025" height="90.025" x="52.601" y="756.555"/><rect style="fill:#0f0;stroke:green;stroke-width:1.93739605" id="rect6245" width="90.025" height="90.025" x="38.656" y="744.079"/><rect style="fill:red;stroke:maroon;stroke-width:1.93739605" id="rect6247" width="90.025" height="90.025" x="24.712" y="731.602"/></g><g id="g6257" transform="translate(345.76652,95.964488)"><rect style="fill:#00f;stroke:navy;stroke-width:1.93739605" id="rect6259" width="90.025" height="90.025" x="52.601" y="756.555"/><rect style="fill:#0f0;stroke:green;stroke-width:1.93739605" id="rect6261" width="90.025" height="90.025" x="38.656" y="744.079"/><rect style="fill:red;stroke:maroon;stroke-width:1.93739605" id="rect6263" width="90.025" height="90.025" x="24.712" y="731.602"/></g><path style="fill:none;stroke:#000;stroke-width:1.04661417px;stroke-linecap:butt;stroke-linejoin:miter;stroke-opacity:1;marker-end:url(#Arrow1Mend-9)" id="path5938-1" d="M 67.305229,952.14407 478.53831,951.87465"/><text style="font-size:40px;font-style:normal;font-weight:400;line-height:125%;letter-spacing:0;word-spacing:0;fill:#000;fill-opacity:1;stroke:none;font-family:Bitstream Vera Sans" id="text5898-4-8" x="210.641" y="963.082" xml:space="preserve"><tspan id="tspan5900-5-9" x="210.641" y="963.082" style="font-size:10px">depth/time</tspan></text><rect id="rect4099-2" width="90.025" height="11.118" x="28.224" y="986.641" style="fill:red;stroke:maroon;stroke-width:.68085021"/><rect style="fill:red;stroke:maroon;stroke-width:.68085021" id="rect6333" width="90.025" height="11.118" x="118.632" y="986.641"/><rect id="rect6335" width="90.025" height="11.118" x="253.993" y="986.641" style="fill:red;stroke:maroon;stroke-width:.68085021"/><text style="font-size:40px;font-style:normal;font-weight:400;line-height:125%;letter-spacing:0;word-spacing:0;fill:#ccc;fill-opacity:1;stroke:none;font-family:Bitstream Vera Sans" id="text6337" x="52.403" y="995.344" xml:space="preserve"><tspan id="tspan6339" x="52.403" y="995.344" style="font-size:10px;fill:#ccc">x=0..width-1</tspan></text><text id="text6362" x="139.781" y="995.344" xml:space="preserve" style="font-size:40px;font-style:normal;font-weight:400;line-height:125%;letter-spacing:0;word-spacing:0;fill:#ccc;fill-opacity:1;stroke:none;font-family:Bitstream Vera Sans"><tspan style="font-size:10px;fill:#ccc" id="tspan6364" x="139.781" y="995.344">x=0..width-1</tspan></text><text style="font-size:40px;font-style:normal;font-weight:400;line-height:125%;letter-spacing:0;word-spacing:0;fill:#ccc;fill-opacity:1;stroke:none;font-family:Bitstream Vera Sans" id="text6366" x="281.202" y="995.344" xml:space="preserve"><tspan id="tspan6368" x="281.202" y="995.344" style="font-size:10px;fill:#ccc">x=0..width-1</tspan></text><rect style="fill:none;stroke:#000;stroke-width:.94521457" id="rect6370" width="316.411" height="21.713" x="27.779" y="986.323"/><text style="font-size:40px;font-style:normal;font-weight:400;line-height:125%;letter-spacing:0;word-spacing:0;fill:#000;fill-opacity:1;stroke:none;font-family:Bitstream Vera Sans" id="text6372" x="70.586" y="1006.456" xml:space="preserve"><tspan id="tspan6374" x="70.586" y="1006.456" style="font-size:10px">y=0 y=1 ... y=height-1</tspan></text><rect id="rect6427" width="47.035" height="11.118" x="27.918" y="1022.356" style="fill:red;stroke:maroon;stroke-width:.49213231"/><rect style="fill:#0f0;stroke:green;stroke-width:.49213231" id="rect6429" width="47.035" height="11.118" x="74.94" y="1022.356"/><rect id="rect6431" width="47.035" height="11.118" x="121.962" y="1022.356" style="fill:#00f;stroke:navy;stroke-width:.49213231"/><rect style="fill:red;stroke:maroon;stroke-width:.49213231" id="rect6457" width="47.035" height="11.118" x="27.918" y="1022.356"/><rect id="rect6459" width="47.035" height="11.118" x="74.94" y="1022.356" style="fill:#0f0;stroke:green;stroke-width:.49213231"/><rect style="fill:#00f;stroke:navy;stroke-width:.49213231" id="rect6461" width="47.035" height="11.118" x="121.962" y="1022.356"/><rect id="rect6463" width="47.035" height="11.118" x="169.346" y="1022.356" style="fill:red;stroke:maroon;stroke-width:.49213231"/><rect style="fill:#0f0;stroke:green;stroke-width:.49213231" id="rect6465" width="47.035" height="11.118" x="216.369" y="1022.356"/><rect id="rect6467" width="47.035" height="11.118" x="263.391" y="1022.356" style="fill:#00f;stroke:navy;stroke-width:.49213231"/><rect style="fill:red;stroke:maroon;stroke-width:.49213231" id="rect6469" width="47.035" height="11.118" x="372.918" y="1022.356"/><rect id="rect6471" width="47.035" height="11.118" x="419.94" y="1022.356" style="fill:#0f0;stroke:green;stroke-width:.49213231"/><rect style="fill:#00f;stroke:navy;stroke-width:.49213231" id="rect6473" width="47.035" height="11.118" x="466.962" y="1022.356"/><rect style="fill:none;stroke:#000" id="rect6475" width="487.143" height="25" x="27.504" y="1021.898"/><path style="fill:none;stroke:#000;stroke-width:1px;stroke-linecap:butt;stroke-linejoin:miter;stroke-opacity:1" id="path6477" d="m 27.526656,1022.0576 0.252538,-14.1421"/><path style="fill:none;stroke:#000;stroke-width:1px;stroke-linecap:butt;stroke-linejoin:miter;stroke-opacity:1" id="path6479" d="m 74.751289,1021.5525 268.855131,-13.583"/><path style="fill:none;stroke:#000;stroke-width:1.00411427px;stroke-linecap:butt;stroke-linejoin:miter;stroke-opacity:1" id="path6481" d="m 118.18784,986.19721 0,21.30049"/><path id="path6483" d="m 208.65777,986.19721 0,21.30049" style="fill:none;stroke:#000;stroke-width:1.00411427px;stroke-linecap:butt;stroke-linejoin:miter;stroke-opacity:1"/><path style="fill:none;stroke:#000;stroke-width:1.00411427px;stroke-linecap:butt;stroke-linejoin:miter;stroke-opacity:1" id="path6485" d="m 254.01491,986.19721 0,21.30049"/><path style="fill:none;stroke:#000;stroke-width:1.07980943px;stroke-linecap:butt;stroke-linejoin:miter;stroke-opacity:1" id="path6481-7" d="m 169.20054,1022.014 0,24.633"/><path id="path6505" d="m 310.6219,1022.014 0,24.633" style="fill:none;stroke:#000;stroke-width:1.07980943px;stroke-linecap:butt;stroke-linejoin:miter;stroke-opacity:1"/><path style="fill:none;stroke:#000;stroke-width:1.07980943px;stroke-linecap:butt;stroke-linejoin:miter;stroke-opacity:1" id="path6507" d="m 372.74628,1022.014 0,24.633"/><text style="font-size:10px;font-style:normal;font-weight:400;line-height:125%;letter-spacing:0;word-spacing:0;fill:#000;fill-opacity:1;stroke:none;font-family:Bitstream Vera Sans" id="text6509" x="40.911" y="1031.149" xml:space="preserve"><tspan id="tspan6511" x="40.911" y="1031.149">c=0 c=1 c=2</tspan></text><text id="text6513" x="183.343" y="1031.149" xml:space="preserve" style="font-size:10px;font-style:normal;font-weight:400;line-height:125%;letter-spacing:0;word-spacing:0;fill:#000;fill-opacity:1;stroke:none;font-family:Bitstream Vera Sans"><tspan id="tspan6515" x="183.343" y="1031.149">c=0 c=1 c=2</tspan></text><text style="font-size:10px;font-style:normal;font-weight:400;line-height:125%;letter-spacing:0;word-spacing:0;fill:#000;fill-opacity:1;stroke:none;font-family:Bitstream Vera Sans" id="text6517" x="384.363" y="1031.149" xml:space="preserve"><tspan id="tspan6519" x="384.363" y="1031.149">c=0 c=1 c=2</tspan></text><text id="text6521" x="89.778" y="1042.822" xml:space="preserve" style="font-size:40px;font-style:normal;font-weight:400;line-height:125%;letter-spacing:0;word-spacing:0;fill:#000;fill-opacity:1;stroke:none;font-family:Bitstream Vera Sans"><tspan style="font-size:10px" id="tspan6523" x="89.778" y="1042.822">z=0 z=1 ... z=depth-1</tspan></text><text style="font-size:10px;font-style:normal;font-weight:400;line-height:125%;letter-spacing:0;word-spacing:0;fill:#000;fill-opacity:1;stroke:none;font-family:Bitstream Vera Sans" id="text3069" x="412.395" y="204.09" transform="translate(0,804.33069)" xml:space="preserve"><tspan id="tspan3071" x="412.395" y="204.09">channels=3</tspan></text></g></svg>