<svg xmlns="http://www.w3.org/2000/svg" xmlns:svg="http://www.w3.org/2000/svg" xmlns:xlink="http://www.w3.org/1999/xlink" id="svg1307" width="128" height="128" version="1.0"><defs id="defs1309"><linearGradient id="linearGradient2497"><stop style="stop-color:#fff;stop-opacity:1" id="stop2499" offset="0"/><stop id="stop11148" offset=".5" style="stop-color:#ececec;stop-opacity:1"/><stop style="stop-color:#c1c1c1;stop-opacity:1" id="stop2501" offset="1"/></linearGradient><linearGradient id="linearGradient3251"><stop style="stop-color:#000;stop-opacity:1" id="stop3253" offset="0"/><stop id="stop14161" offset=".709" style="stop-color:#090909;stop-opacity:.67870039"/><stop style="stop-color:#131313;stop-opacity:0" id="stop3255" offset="1"/></linearGradient><linearGradient id="linearGradient3149"><stop id="stop3151" offset="0" style="stop-color:#8e8e8e;stop-opacity:1"/><stop id="stop3153" offset="1" style="stop-color:#f8f8f8;stop-opacity:1"/></linearGradient><linearGradient id="linearGradient2466" x1="3006.272" x2="-1062.923" y1="11729.52" y2="1799.618" gradientUnits="userSpaceOnUse" xlink:href="#linearGradient3149"/><linearGradient id="linearGradient6116" x1="74" x2="74.5" y1="77" y2="40.5" gradientTransform="translate(0,2.538)" gradientUnits="userSpaceOnUse" xlink:href="#linearGradient3149"/><linearGradient id="linearGradient6118" x1="74" x2="74.5" y1="77" y2="40.5" gradientTransform="translate(0,2.538)" gradientUnits="userSpaceOnUse" xlink:href="#linearGradient3149"/><linearGradient id="linearGradient6120" x1="74" x2="74.5" y1="77" y2="40.5" gradientTransform="translate(0,2.538)" gradientUnits="userSpaceOnUse" xlink:href="#linearGradient3149"/><linearGradient id="linearGradient6122" x1="74" x2="74.5" y1="77" y2="40.5" gradientTransform="translate(0,2.538)" gradientUnits="userSpaceOnUse" xlink:href="#linearGradient3149"/><linearGradient id="linearGradient6124" x1="74" x2="74.5" y1="77" y2="40.5" gradientTransform="translate(0,2.538)" gradientUnits="userSpaceOnUse" xlink:href="#linearGradient3149"/><linearGradient id="linearGradient6126" x1="74" x2="74.5" y1="77" y2="40.5" gradientTransform="translate(0,2.538)" gradientUnits="userSpaceOnUse" xlink:href="#linearGradient3149"/><linearGradient id="linearGradient6128" x1="63.393" x2="63.893" y1="33.038" y2="-3.462" gradientUnits="userSpaceOnUse" xlink:href="#linearGradient3149"/><linearGradient id="linearGradient6130" x1="63.393" x2="63.893" y1="33.038" y2="-3.462" gradientUnits="userSpaceOnUse" xlink:href="#linearGradient3149"/><linearGradient id="linearGradient6132" x1="63.393" x2="63.893" y1="33.038" y2="-3.462" gradientUnits="userSpaceOnUse" xlink:href="#linearGradient3149"/><linearGradient id="linearGradient6134" x1="63.393" x2="63.893" y1="33.038" y2="-3.462" gradientUnits="userSpaceOnUse" xlink:href="#linearGradient3149"/><linearGradient id="linearGradient3599" x1="34.002" x2="23.997" y1="63.699" y2="63.699" gradientTransform="matrix(1.6,0,0,1,-14.4,0)" gradientUnits="userSpaceOnUse" xlink:href="#linearGradient3520"/><radialGradient id="radialGradient3417" cx="64" cy="35.686" r="40" fx="64" fy="35.686" gradientTransform="matrix(2.1360441,0,0,1.446027,-72.706823,-25.184217)" gradientUnits="userSpaceOnUse" xlink:href="#linearGradient3133"/><radialGradient id="radialGradient3413" cx="64" cy="35.686" r="40" fx="64" fy="35.686" gradientTransform="matrix(2.1360441,0,0,-1.446027,-72.706823,154.18422)" gradientUnits="userSpaceOnUse" xlink:href="#linearGradient3133"/><clipPath id="clipPath3393" clipPathUnits="userSpaceOnUse"><path id="path3395" d="M 13.8125,8 C 10.584167,8 8,10.584167 8,13.8125 L 8,114.1875 C 8,117.41583 10.584167,120 13.8125,120 L 114.1875,120 C 117.41583,120 120,117.41583 120,114.1875 L 120,13.8125 C 120,10.584167 117.41583,8 114.1875,8 L 13.8125,8 z M 21.8125,16 L 106.1875,16 C 109.41583,16 112,18.584167 112,21.8125 L 112,106.1875 C 112,109.41583 109.41583,112 106.1875,112 L 21.8125,112 C 18.584166,112 16,109.41583 16,106.1875 L 16,21.8125 C 16,18.584166 18.584167,16 21.8125,16 z" style="opacity:1;fill:#dbdbdb;fill-opacity:1;stroke:none;stroke-width:.5;stroke-linecap:round;stroke-linejoin:round;stroke-miterlimit:4;stroke-dasharray:none;stroke-opacity:1"/></clipPath><linearGradient id="linearGradient3191" x1="112" x2="61.979" y1="98.411" y2="11.772" gradientUnits="userSpaceOnUse" xlink:href="#linearGradient3185"/><radialGradient id="radialGradient3139" cx="64" cy="35.686" r="40" fx="64" fy="35.686" gradientTransform="matrix(2.1360441,0,0,1.446027,-72.706823,-26.184217)" gradientUnits="userSpaceOnUse" xlink:href="#linearGradient3133"/><linearGradient id="linearGradient3133"><stop id="stop3135" offset="0" style="stop-color:#646661;stop-opacity:1"/><stop id="stop3137" offset="1" style="stop-color:#111;stop-opacity:1"/></linearGradient><linearGradient id="linearGradient3185"><stop id="stop3187" offset="0" style="stop-color:#eee;stop-opacity:1"/><stop id="stop3189" offset="1" style="stop-color:#eee;stop-opacity:0"/></linearGradient><linearGradient id="linearGradient3520"><stop id="stop3522" offset="0" style="stop-color:#fff;stop-opacity:1"/><stop id="stop3524" offset="1" style="stop-color:#fff;stop-opacity:0"/></linearGradient></defs><metadata id="metadata1312"/><g id="layer1"><path style="fill:#b3b3b3;fill-rule:evenodd;stroke:gray;stroke-width:7.25476599;stroke-linecap:round;stroke-linejoin:round;stroke-miterlimit:4;stroke-dasharray:none;stroke-opacity:1" id="path5408" d="M 32.925085,83.185038 48.177219,67.831095 95.628119,115.59874 110.37459,100.95293 62.975297,52.978216 78.22743,37.624273 10.100748,14.342826 Z"/><path style="fill:#f9f9f9;fill-rule:evenodd;stroke:#000;stroke-width:7.25476599;stroke-linecap:round;stroke-linejoin:round;stroke-miterlimit:4;stroke-dasharray:none;stroke-opacity:1" id="path5408-9" d="M 34.912783,76.740986 50.164917,61.387038 97.615817,109.15469 112.36228,94.508876 64.962995,46.534159 80.215128,31.180216 12.088445,7.8987708 Z"/></g></svg>